<?xml version="1.0" encoding="utf-8"?>
<!-- Generator: Adobe Illustrator 23.0.1, SVG Export Plug-In . SVG Version: 6.00 Build 0)  -->
<svg version="1.1" id="OBJECTS" xmlns="http://www.w3.org/2000/svg" xmlns:xlink="http://www.w3.org/1999/xlink" x="0px" y="0px"
	 viewBox="0 0 266.6 266.8" style="enable-background:new 0 0 266.6 266.8;" xml:space="preserve">
<style type="text/css">
	.st0{fill:#1E2939;}
	.st1{fill:#C026D3;}
	.st2{fill:#A78BFA;}
</style>
<circle class="st0" cx="133.5" cy="133.1" r="132.3"/>
<g>
	<path class="st1" d="M122.2,106.4c6.3-10.5,15.5-19.1,26.5-24.8V69.4h12.8l-26-45.1l-26,45.1h12.8L122.2,106.4L122.2,106.4z"/>
	<path class="st2" d="M178.7,83.6c-11,0-21.3,3.2-30,8.6c-15.1,9.5-25.4,25.8-26.5,44.6c-0.1,1.1-0.1,2.2-0.1,3.3v0.5
		c-0.5,6.5-2.9,12.5-6.8,17.4c-5.8,7.4-14.9,12.2-25.1,12.2c-17.6,0-32-14.4-32-32v-56H31.8v56c0,32.2,26.2,58.4,58.4,58.4
		c11.8,0,22.7-3.5,31.9-9.5v54.7h26.5V188c8.7,5.5,19,8.7,30.1,8.7c31.2,0,56.6-25.4,56.6-56.6S209.9,83.6,178.7,83.6L178.7,83.6z
		 M178.7,170.3c-16.2,0-29.5-12.9-30.1-29c0,0,0,0,0,0c0.1-1,0.1-2,0.1-3v-0.5c1.2-15.5,14.2-27.7,30-27.7
		c16.6,0,30.1,13.5,30.1,30.1S195.3,170.3,178.7,170.3L178.7,170.3z"/>
</g>
</svg>
